<svg xmlns="http://www.w3.org/2000/svg" viewBox="0 0 128 128" role="img" aria-label="不买研究所标志">
  <defs>
    <linearGradient id="bag" x1="12" y1="6" x2="112" y2="124" gradientUnits="userSpaceOnUse">
      <stop stop-color="#B9F33D"/>
      <stop offset="0.52" stop-color="#50DE63"/>
      <stop offset="1" stop-color="#00C853"/>
    </linearGradient>
    <filter id="shadow" x="-20%" y="-20%" width="140%" height="150%">
      <feDropShadow dx="0" dy="7" stdDeviation="7" flood-color="#075B2C" flood-opacity="0.2"/>
    </filter>
  </defs>
  <g filter="url(#shadow)">
    <path d="M38 39c0-17 10-28 26-28s26 11 26 28" fill="none" stroke="#0B6D35" stroke-width="10" stroke-linecap="round"/>
    <path d="M26 34h76c8 0 13 6 14 14l8 63c1 9-5 15-14 15H18c-9 0-15-6-14-15l8-63c1-8 6-14 14-14Z" fill="url(#bag)"/>
    <rect x="26" y="50" width="76" height="61" rx="20" fill="#FFFDF3" fill-opacity="0.96"/>
    <path d="M43 68l13 13M56 68L43 81M72 68l13 13M85 68L72 81" stroke="#151A18" stroke-width="8" stroke-linecap="round"/>
    <path d="M44 93c8 10 31 10 40 0" fill="none" stroke="#151A18" stroke-width="7" stroke-linecap="round"/>
    <circle cx="108" cy="32" r="9" fill="#E8FF4B"/>
    <path d="M108 25v14M101 32h14" stroke="#FFFFFF" stroke-width="3" stroke-linecap="round"/>
  </g>
</svg>
