<svg xmlns="http://www.w3.org/2000/svg" viewBox="0 0 400 400" role="img" aria-label="KEYNOVA 星栈机械键盘">
    <defs><linearGradient id="g" x1="0" y1="0" x2="1" y2="1"><stop offset="0" stop-color="#7CA9D8"/><stop offset="1" stop-color="#EEF6FF"/></linearGradient></defs>
    <rect width="400" height="400" rx="52" fill="url(#g)"/>
    <circle cx="345" cy="55" r="75" fill="white" opacity=".22"/><circle cx="45" cy="350" r="90" fill="white" opacity=".17"/>
    <rect x="70" y="135" width="260" height="145" rx="23" fill="#EEF6FF" stroke="#314F73" stroke-width="7" stroke-linejoin="round"/><rect x="88" y="154" width="18" height="15" rx="4" fill="#314F73" opacity="0.25"/><rect x="113" y="154" width="18" height="15" rx="4" fill="#314F73" opacity="0.35"/><rect x="138" y="154" width="18" height="15" rx="4" fill="#314F73" opacity="0.45"/><rect x="163" y="154" width="18" height="15" rx="4" fill="#314F73" opacity="0.25"/><rect x="188" y="154" width="18" height="15" rx="4" fill="#314F73" opacity="0.35"/><rect x="213" y="154" width="18" height="15" rx="4" fill="#314F73" opacity="0.45"/><rect x="238" y="154" width="18" height="15" rx="4" fill="#314F73" opacity="0.25"/><rect x="263" y="154" width="18" height="15" rx="4" fill="#314F73" opacity="0.35"/><rect x="288" y="154" width="18" height="15" rx="4" fill="#314F73" opacity="0.45"/><rect x="88" y="180" width="18" height="15" rx="4" fill="#314F73" opacity="0.35"/><rect x="113" y="180" width="18" height="15" rx="4" fill="#314F73" opacity="0.45"/><rect x="138" y="180" width="18" height="15" rx="4" fill="#314F73" opacity="0.25"/><rect x="163" y="180" width="18" height="15" rx="4" fill="#314F73" opacity="0.35"/><rect x="188" y="180" width="18" height="15" rx="4" fill="#314F73" opacity="0.45"/><rect x="213" y="180" width="18" height="15" rx="4" fill="#314F73" opacity="0.25"/><rect x="238" y="180" width="18" height="15" rx="4" fill="#314F73" opacity="0.35"/><rect x="263" y="180" width="18" height="15" rx="4" fill="#314F73" opacity="0.45"/><rect x="288" y="180" width="18" height="15" rx="4" fill="#314F73" opacity="0.25"/><rect x="88" y="206" width="18" height="15" rx="4" fill="#314F73" opacity="0.45"/><rect x="113" y="206" width="18" height="15" rx="4" fill="#314F73" opacity="0.25"/><rect x="138" y="206" width="18" height="15" rx="4" fill="#314F73" opacity="0.35"/><rect x="163" y="206" width="18" height="15" rx="4" fill="#314F73" opacity="0.45"/><rect x="188" y="206" width="18" height="15" rx="4" fill="#314F73" opacity="0.25"/><rect x="213" y="206" width="18" height="15" rx="4" fill="#314F73" opacity="0.35"/><rect x="238" y="206" width="18" height="15" rx="4" fill="#314F73" opacity="0.45"/><rect x="263" y="206" width="18" height="15" rx="4" fill="#314F73" opacity="0.25"/><rect x="288" y="206" width="18" height="15" rx="4" fill="#314F73" opacity="0.35"/><rect x="88" y="232" width="18" height="15" rx="4" fill="#314F73" opacity="0.25"/><rect x="113" y="232" width="18" height="15" rx="4" fill="#314F73" opacity="0.35"/><rect x="138" y="232" width="18" height="15" rx="4" fill="#314F73" opacity="0.45"/><rect x="163" y="232" width="18" height="15" rx="4" fill="#314F73" opacity="0.25"/><rect x="188" y="232" width="18" height="15" rx="4" fill="#314F73" opacity="0.35"/><rect x="213" y="232" width="18" height="15" rx="4" fill="#314F73" opacity="0.45"/><rect x="238" y="232" width="18" height="15" rx="4" fill="#314F73" opacity="0.25"/><rect x="263" y="232" width="18" height="15" rx="4" fill="#314F73" opacity="0.35"/><rect x="288" y="232" width="18" height="15" rx="4" fill="#314F73" opacity="0.45"/>
    <rect x="22" y="22" width="118" height="34" rx="17" fill="white" opacity=".8"/>
    <text x="81" y="45" text-anchor="middle" font-family="Arial, sans-serif" font-size="15" font-weight="700" fill="#314F73" letter-spacing="1">KEYNOVA</text>
    </svg>