<svg xmlns="http://www.w3.org/2000/svg" viewBox="0 0 400 400" role="img" aria-label="SOLVANE 镜野复古金属墨镜">
    <defs><linearGradient id="g" x1="0" y1="0" x2="1" y2="1"><stop offset="0" stop-color="#C8A47D"/><stop offset="1" stop-color="#FFF7EF"/></linearGradient></defs>
    <rect width="400" height="400" rx="52" fill="url(#g)"/>
    <circle cx="345" cy="55" r="75" fill="white" opacity=".22"/><circle cx="45" cy="350" r="90" fill="white" opacity=".17"/>
    <path d="M72 185h70c20 0 30 18 25 45-8 43-78 43-90 0-5-20-5-45-5-45zM328 185h-70c-20 0-30 18-25 45 8 43 78 43 90 0 5-20 5-45 5-45zM167 205h66" stroke="#5F4937" stroke-width="8" stroke-linecap="round" stroke-linejoin="round" fill="none"/><path d="M72 185l-22-25M328 185l22-25" stroke="#5F4937" stroke-width="8" stroke-linecap="round" stroke-linejoin="round" fill="none"/>
    <rect x="22" y="22" width="118" height="34" rx="17" fill="white" opacity=".8"/>
    <text x="81" y="45" text-anchor="middle" font-family="Arial, sans-serif" font-size="15" font-weight="700" fill="#5F4937" letter-spacing="1">SOLVANE</text>
    </svg>