<svg xmlns="http://www.w3.org/2000/svg" viewBox="0 0 400 400" role="img" aria-label="ARCADIO 游弧专业无线手柄">
    <defs><linearGradient id="g" x1="0" y1="0" x2="1" y2="1"><stop offset="0" stop-color="#8277C7"/><stop offset="1" stop-color="#F3F1FF"/></linearGradient></defs>
    <rect width="400" height="400" rx="52" fill="url(#g)"/>
    <circle cx="345" cy="55" r="75" fill="white" opacity=".22"/><circle cx="45" cy="350" r="90" fill="white" opacity=".17"/>
    <path d="M120 145c30-20 55 12 80 12s50-32 80-12c45 30 55 145 13 155-32 8-50-47-93-47s-61 55-93 47c-42-10-32-125 13-155z" fill="#F3F1FF" stroke="#3D376F" stroke-width="7" stroke-linejoin="round"/><path d="M145 195v42M124 216h42" stroke="#3D376F" stroke-width="8" stroke-linecap="round" stroke-linejoin="round" fill="none"/><circle cx="260" cy="202" r="10" fill="#3D376F"/><circle cx="282" cy="225" r="10" fill="#3D376F"/>
    <rect x="22" y="22" width="118" height="34" rx="17" fill="white" opacity=".8"/>
    <text x="81" y="45" text-anchor="middle" font-family="Arial, sans-serif" font-size="15" font-weight="700" fill="#3D376F" letter-spacing="1">ARCADIO</text>
    </svg>