<svg xmlns="http://www.w3.org/2000/svg" viewBox="0 0 400 400" role="img" aria-label="RESTORA 城市周末酒店套餐">
    <defs><linearGradient id="g" x1="0" y1="0" x2="1" y2="1"><stop offset="0" stop-color="#6DAFC3"/><stop offset="1" stop-color="#EFFBFF"/></linearGradient></defs>
    <rect width="400" height="400" rx="52" fill="url(#g)"/>
    <circle cx="345" cy="55" r="75" fill="white" opacity=".22"/><circle cx="45" cy="350" r="90" fill="white" opacity=".17"/>
    <rect x="105" y="85" width="190" height="245" rx="12" fill="#EFFBFF" stroke="#315E68" stroke-width="7" stroke-linejoin="round"/><path d="M155 330v-65h90v65" stroke="#315E68" stroke-width="8" stroke-linecap="round" stroke-linejoin="round" fill="none"/><rect x="135" y="120" width="28" height="24" rx="5" fill="#315E68" opacity=".35"/><rect x="190" y="120" width="28" height="24" rx="5" fill="#315E68" opacity=".35"/><rect x="245" y="120" width="28" height="24" rx="5" fill="#315E68" opacity=".35"/><rect x="135" y="165" width="28" height="24" rx="5" fill="#315E68" opacity=".35"/><rect x="190" y="165" width="28" height="24" rx="5" fill="#315E68" opacity=".35"/><rect x="245" y="165" width="28" height="24" rx="5" fill="#315E68" opacity=".35"/><rect x="135" y="210" width="28" height="24" rx="5" fill="#315E68" opacity=".35"/><rect x="190" y="210" width="28" height="24" rx="5" fill="#315E68" opacity=".35"/><rect x="245" y="210" width="28" height="24" rx="5" fill="#315E68" opacity=".35"/>
    <rect x="22" y="22" width="118" height="34" rx="17" fill="white" opacity=".8"/>
    <text x="81" y="45" text-anchor="middle" font-family="Arial, sans-serif" font-size="15" font-weight="700" fill="#315E68" letter-spacing="1">RESTORA</text>
    </svg>