<svg xmlns="http://www.w3.org/2000/svg" viewBox="0 0 400 400" role="img" aria-label="AEROVIA 云舱商务舱升级服务">
    <defs><linearGradient id="g" x1="0" y1="0" x2="1" y2="1"><stop offset="0" stop-color="#6DAFC3"/><stop offset="1" stop-color="#EFFBFF"/></linearGradient></defs>
    <rect width="400" height="400" rx="52" fill="url(#g)"/>
    <circle cx="345" cy="55" r="75" fill="white" opacity=".22"/><circle cx="45" cy="350" r="90" fill="white" opacity=".17"/>
    <path d="M120 90h90v120h55c25 0 40 20 40 45v50H130c-25 0-40-20-40-45V120c0-17 13-30 30-30z" fill="#EFFBFF" stroke="#315E68" stroke-width="7" stroke-linejoin="round"/><path d="M130 210v95M275 255v65" stroke="#315E68" stroke-width="8" stroke-linecap="round" stroke-linejoin="round" fill="none"/><path d="M245 120l75-55M285 78l35-13-10 35" stroke="#315E68" stroke-width="8" stroke-linecap="round" stroke-linejoin="round" fill="none"/>
    <rect x="22" y="22" width="118" height="34" rx="17" fill="white" opacity=".8"/>
    <text x="81" y="45" text-anchor="middle" font-family="Arial, sans-serif" font-size="15" font-weight="700" fill="#315E68" letter-spacing="1">AEROVIA</text>
    </svg>